<svg width="239" height="40" viewBox="0 0 239 40" fill="none" xmlns="http://www.w3.org/2000/svg">
<path d="M87.7874 12.5875H91.5374V27.75H87.7874V12.5875ZM93.0249 22.025C93.0249 18.275 95.3249 16.0375 98.8749 16.0375C102.425 16.0375 104.725 18.275 104.725 22.025C104.725 25.775 102.475 28.025 98.8749 28.025C95.2749 28.025 93.0249 25.8375 93.0249 22.025ZM100.962 22.025C100.962 19.9625 100.15 18.75 98.8749 18.75C97.5999 18.75 96.7999 20 96.7999 22.025C96.7999 24.05 97.5874 25.275 98.8749 25.275C100.162 25.275 100.962 24.125 100.962 22.0375V22.025ZM106.137 28.4875H109.737C109.909 28.8681 110.198 29.1832 110.563 29.386C110.928 29.5886 111.349 29.6681 111.762 29.6125C113.187 29.6125 113.937 28.8375 113.937 27.7125V25.6125H113.862C113.564 26.2561 113.079 26.7954 112.47 27.1609C111.862 27.5262 111.158 27.701 110.45 27.6625C107.712 27.6625 105.9 25.575 105.9 21.9875C105.9 18.4 107.625 16.1375 110.5 16.1375C111.231 16.1089 111.953 16.3042 112.569 16.6974C113.186 17.0906 113.668 17.6629 113.95 18.3375V16.25H117.7V27.625C117.7 30.3625 115.287 32.0625 111.725 32.0625C108.412 32.0625 106.35 30.575 106.137 28.5V28.4875ZM113.95 22.0125C113.95 20.1875 113.112 19.0375 111.787 19.0375C110.462 19.0375 109.65 20.175 109.65 22.0125C109.65 23.85 110.45 24.8875 111.787 24.8875C113.125 24.8875 113.95 23.875 113.95 22.025V22.0125ZM119.112 22.0125C119.112 18.2625 121.412 16.025 124.962 16.025C128.512 16.025 130.825 18.2625 130.825 22.0125C130.825 25.7625 128.575 28.0125 124.962 28.0125C121.35 28.0125 119.112 25.8375 119.112 22.025V22.0125ZM127.05 22.0125C127.05 19.95 126.237 18.7375 124.962 18.7375C123.687 18.7375 122.95 20 122.95 22.0375C122.95 24.075 123.737 25.2875 125.012 25.2875C126.287 25.2875 127.05 24.125 127.05 22.0375V22.0125ZM132.25 13.525C132.24 13.1464 132.343 12.7734 132.545 12.4532C132.748 12.1331 133.041 11.8803 133.387 11.7269C133.733 11.5734 134.117 11.5262 134.49 11.5913C134.863 11.6564 135.209 11.8308 135.483 12.0923C135.757 12.3539 135.947 12.691 136.029 13.0607C136.111 13.4305 136.081 13.8162 135.944 14.1692C135.806 14.5221 135.567 14.8264 135.257 15.0432C134.946 15.2601 134.578 15.38 134.2 15.3875C133.949 15.4047 133.697 15.3699 133.46 15.2851C133.223 15.2004 133.006 15.0676 132.823 14.895C132.64 14.7225 132.495 14.5139 132.396 14.2824C132.297 14.051 132.247 13.8016 132.25 13.55V13.525ZM132.25 16.275H136V27.75H132.25V16.275ZM149.612 22.0125C149.612 25.7625 147.95 27.9 145.1 27.9C144.369 27.9469 143.641 27.7682 143.015 27.3882C142.389 27.0081 141.895 26.445 141.6 25.775H141.525V31.425H137.775V16.25H141.525V18.3H141.6C141.882 17.6189 142.366 17.0411 142.988 16.6452C143.61 16.2494 144.338 16.0546 145.075 16.0875C147.95 16.1375 149.662 18.2875 149.662 22.0375L149.612 22.0125ZM145.862 22.0125C145.862 20.1875 145.025 19.025 143.712 19.025C142.4 19.025 141.562 20.2 141.55 22.0125C141.537 23.825 142.4 24.9875 143.712 24.9875C145.025 24.9875 145.862 23.85 145.862 22.0375V22.0125ZM156.05 16.0125C159.162 16.0125 161.05 17.4875 161.137 19.85H157.725C157.725 19.0375 157.05 18.525 156.012 18.525C154.975 18.525 154.512 18.925 154.512 19.5125C154.512 20.1 154.925 20.2875 155.762 20.4625L158.162 20.95C160.45 21.4375 161.425 22.3625 161.425 24.1C161.425 26.475 159.262 28 156.075 28C152.887 28 150.8 26.475 150.637 24.1375H154.25C154.362 24.9875 155.037 25.4875 156.137 25.4875C157.237 25.4875 157.737 25.125 157.737 24.525C157.737 23.925 157.387 23.8 156.487 23.6125L154.325 23.15C152.087 22.6875 150.912 21.5 150.912 19.75C150.937 17.5 152.95 16.0375 156.05 16.0375V16.0125ZM173.937 27.725H170.325V25.5875H170.25C170.051 26.3051 169.614 26.9332 169.009 27.3676C168.404 27.8019 167.669 28.0162 166.925 27.975C166.355 28.0074 165.785 27.9171 165.253 27.7102C164.721 27.5034 164.24 27.1849 163.842 26.776C163.444 26.3672 163.138 25.8776 162.945 25.3405C162.753 24.8034 162.677 24.2311 162.725 23.6625V16.25H166.475V22.8C166.475 24.1625 167.175 24.8875 168.337 24.8875C168.61 24.888 168.88 24.8304 169.129 24.7182C169.376 24.6061 169.599 24.4421 169.779 24.2374C169.957 24.0325 170.092 23.7916 170.171 23.5309C170.25 23.27 170.274 22.9952 170.237 22.725V16.25H173.987L173.937 27.725ZM175.75 16.25H179.375V18.4625H179.45C179.649 17.7544 180.077 17.1321 180.667 16.6934C181.257 16.2546 181.977 16.0239 182.712 16.0375C183.461 15.9776 184.204 16.2015 184.795 16.6647C185.385 17.128 185.78 17.7965 185.9 18.5375H185.975C186.201 17.7886 186.671 17.1366 187.31 16.684C187.947 16.2314 188.719 16.0039 189.5 16.0375C190.01 16.0204 190.517 16.1107 190.99 16.3027C191.464 16.4946 191.89 16.784 192.244 17.1517C192.597 17.5196 192.87 17.9577 193.044 18.4376C193.216 18.9175 193.287 19.4286 193.25 19.9375V27.75H189.5V20.9375C189.5 19.6875 188.937 19.1125 187.887 19.1125C187.654 19.1105 187.421 19.1587 187.207 19.254C186.994 19.3492 186.802 19.4892 186.647 19.6646C186.492 19.84 186.376 20.0465 186.307 20.2704C186.239 20.4944 186.22 20.7304 186.25 20.9625V27.75H182.687V20.8875C182.687 19.7375 182.125 19.1125 181.1 19.1125C180.864 19.1126 180.629 19.1629 180.414 19.26C180.197 19.3572 180.004 19.4991 179.847 19.6762C179.69 19.8534 179.572 20.0619 179.501 20.288C179.431 20.514 179.409 20.7524 179.437 20.9875V27.75H175.687L175.75 16.25Z" fill="#7C7C7C"/>
<path d="M77.2999 13.275C76.6638 11.8204 75.8219 10.4649 74.7999 9.24999C73.2893 7.40041 71.4041 5.89172 69.2683 4.82324C67.1326 3.75476 64.7947 3.1507 62.4087 3.05081C60.0227 2.95093 57.6426 3.35747 55.4249 4.24372C53.2074 5.12996 51.2027 6.4758 49.5427 8.19265C47.8827 9.90949 46.6052 11.9584 45.7941 14.2046C44.983 16.4507 44.6568 18.8432 44.837 21.2245C45.0172 23.6059 45.6996 25.922 46.8394 28.0205C47.9792 30.1191 49.5506 31.9525 51.45 33.4C52.6687 34.3474 54.0154 35.1175 55.4499 35.6875C57.4612 36.5117 59.6138 36.9362 61.7874 36.9375C66.2742 36.9276 70.5739 35.1391 73.7443 31.9641C76.9146 28.7891 78.6967 24.4867 78.6999 20C78.7032 17.6856 78.2266 15.3957 77.2999 13.275ZM61.7749 6.48747C63.7269 6.48727 65.6553 6.9139 67.4249 7.73747C66.9934 7.92394 66.5397 8.05417 66.0749 8.12499C64.5457 8.34635 63.1291 9.05632 62.0364 10.1489C60.9438 11.2416 60.2338 12.6582 60.0124 14.1875C59.9153 15.0451 59.5252 15.843 58.9081 16.4465C58.2909 17.05 57.4846 17.422 56.6249 17.5C55.0957 17.7214 53.679 18.4314 52.5864 19.524C51.4938 20.6166 50.7838 22.0332 50.5625 23.5625C50.4875 24.378 50.1396 25.1444 49.575 25.7375C48.6008 23.6791 48.1631 21.4076 48.3028 19.1346C48.4424 16.8616 49.1548 14.6609 50.3737 12.7371C51.5925 10.8135 53.2782 9.22937 55.2738 8.13229C57.2694 7.0352 59.5102 6.46079 61.7874 6.46247L61.7749 6.48747ZM51.4375 28.75C51.5875 28.6125 51.7375 28.4875 51.8875 28.3375C52.9995 27.2594 53.7133 25.8361 53.9125 24.3C53.9932 23.4365 54.3787 22.63 54.9999 22.025C55.5978 21.4027 56.4024 21.0204 57.2624 20.95C58.7917 20.7286 60.2083 20.0186 61.3009 18.926C62.3936 17.8334 63.1036 16.4167 63.3249 14.8875C63.3791 13.9844 63.7666 13.1335 64.4124 12.5C65.0251 11.8898 65.8373 11.5214 66.6999 11.4625C68.1048 11.2692 69.4151 10.6446 70.4499 9.67499C71.6283 10.6526 72.6266 11.8286 73.3999 13.15C73.3524 13.2141 73.2979 13.2729 73.2374 13.325C72.6408 13.9527 71.8372 14.3435 70.9749 14.425C69.4441 14.6425 68.0253 15.3512 66.9319 16.4445C65.8387 17.5379 65.1299 18.9566 64.9124 20.4875C64.8243 21.348 64.4414 22.1516 63.8287 22.7621C63.2158 23.3727 62.4108 23.7526 61.5499 23.8375C60.0162 24.0571 58.5943 24.7657 57.4953 25.8579C56.3964 26.9501 55.6791 28.3676 55.4499 29.9C55.3827 30.5109 55.1728 31.0975 54.8374 31.6125C53.5549 30.851 52.4063 29.884 51.4375 28.75ZM61.7749 33.575C60.5066 33.5764 59.2442 33.3996 58.0249 33.05C58.4421 32.2725 58.7132 31.4251 58.8249 30.55C58.9126 29.6914 59.2937 28.8892 59.9039 28.279C60.5142 27.6687 61.3163 27.2876 62.1749 27.2C63.7064 26.9811 65.1259 26.2722 66.2211 25.1794C67.3161 24.0866 68.0279 22.6685 68.2499 21.1375C68.3376 20.2789 68.7187 19.4767 69.3289 18.8665C69.9392 18.2562 70.7413 17.8751 71.5999 17.7875C72.7524 17.6376 73.8509 17.2085 74.7999 16.5375C75.3269 18.5349 75.3893 20.6264 74.9824 22.6516C74.5756 24.6769 73.7101 26.5821 72.4526 28.221C71.1951 29.8597 69.5789 31.1889 67.7279 32.1061C65.8771 33.0234 63.8407 33.5045 61.7749 33.5125V33.575Z" fill="#7C7C7C"/>
</svg>
