<svg width="240" height="40" viewBox="0 0 240 40" fill="none" xmlns="http://www.w3.org/2000/svg">
<path d="M59.3526 7.82355V2.82355H43.5879V37.1765H59.3526V32.1765C56.1232 32.1765 53.026 30.8936 50.7425 28.61C48.459 26.3265 47.1761 23.2294 47.1761 20C47.1761 16.7706 48.459 13.6734 50.7425 11.39C53.026 9.10643 56.1232 7.82355 59.3526 7.82355Z" fill="#7C7C7C"/>
<path d="M59.3525 7.82355V32.1765C62.582 32.1765 65.6791 30.8936 67.9627 28.61C70.2462 26.3265 71.529 23.2294 71.529 20C71.529 16.7706 70.2462 13.6734 67.9627 11.39C65.6791 9.10643 62.582 7.82355 59.3525 7.82355Z" fill="#7C7C7C"/>
<path d="M80.3765 10.8823H83.9059V27.8823H80.3765V10.8823Z" fill="#7C7C7C"/>
<path d="M85.8824 22.0588C85.8824 20.8358 86.2456 19.6403 86.9258 18.6238C87.606 17.6073 88.5727 16.8157 89.7034 16.3492C90.8342 15.8828 92.0778 15.7626 93.2769 16.0038C94.4759 16.245 95.5764 16.8367 96.4387 17.704C97.3011 18.5714 97.8866 19.6752 98.121 20.8757C98.3552 22.0761 98.2279 23.3191 97.755 24.4471C97.282 25.575 96.485 26.5372 95.4646 27.2116C94.4443 27.886 93.2466 28.2423 92.0236 28.2353C91.2124 28.2417 90.408 28.086 89.6578 27.7773C88.9076 27.4687 88.2264 27.0134 87.6544 26.4383C87.0824 25.863 86.6311 25.1792 86.3267 24.4272C86.0225 23.6752 85.8714 22.87 85.8824 22.0588ZM94.7295 22.0588C94.7156 21.5316 94.5465 21.02 94.2434 20.5884C93.9404 20.1566 93.5169 19.8238 93.0256 19.6316C92.5344 19.4393 91.9975 19.3961 91.4819 19.5076C90.9663 19.6188 90.495 19.8797 90.1269 20.2576C89.7587 20.6353 89.5102 21.1132 89.4123 21.6316C89.3144 22.1499 89.3714 22.6856 89.5764 23.1716C89.7813 23.6576 90.125 24.0725 90.5645 24.3641C91.0039 24.6559 91.5196 24.8116 92.0471 24.8118C92.4063 24.8188 92.763 24.7517 93.095 24.6145C93.427 24.4774 93.7271 24.2733 93.9766 24.015C94.2262 23.7566 94.4197 23.4494 94.5452 23.113C94.6707 22.7764 94.7254 22.4176 94.7059 22.0588H94.7295Z" fill="#7C7C7C"/>
<path d="M112.129 16.2353V27.3059C112.129 31.2118 109.07 32.8706 105.976 32.8706C104.885 32.9601 103.79 32.7433 102.815 32.2445C101.841 31.7457 101.024 30.9846 100.459 30.0471L103.435 28.3294C103.676 28.8158 104.06 29.217 104.535 29.4797C105.01 29.7424 105.554 29.8541 106.094 29.8C106.438 29.8424 106.787 29.8083 107.116 29.7C107.446 29.5917 107.747 29.412 107.999 29.1737C108.251 28.9353 108.447 28.6444 108.573 28.3214C108.699 27.9986 108.753 27.6518 108.729 27.3059V26.2353C108.318 26.7333 107.797 27.1286 107.207 27.39C106.617 27.6514 105.974 27.7717 105.329 27.7412C103.769 27.7412 102.273 27.1214 101.17 26.0183C100.067 24.9152 99.4468 23.419 99.4468 21.8588C99.4468 20.2987 100.067 18.8026 101.17 17.6994C102.273 16.5963 103.769 15.9765 105.329 15.9765C105.974 15.946 106.617 16.0663 107.207 16.3277C107.797 16.5891 108.318 16.9844 108.729 17.4824V16.3059L112.129 16.2353ZM108.729 21.8236C108.753 21.2607 108.607 20.7037 108.311 20.2241C108.016 19.7446 107.584 19.3645 107.07 19.1326C106.557 18.9007 105.986 18.8278 105.43 18.9231C104.875 19.0184 104.361 19.2776 103.954 19.6673C103.548 20.0571 103.267 20.5597 103.148 21.1104C103.029 21.6611 103.078 22.2346 103.288 22.7574C103.497 23.2803 103.859 23.7284 104.325 24.0441C104.792 24.3599 105.342 24.529 105.906 24.5294C106.273 24.5559 106.642 24.505 106.989 24.38C107.336 24.255 107.652 24.0586 107.918 23.8036C108.184 23.5486 108.394 23.2406 108.534 22.8996C108.673 22.5585 108.74 22.1919 108.729 21.8236Z" fill="#7C7C7C"/>
<path d="M114.118 22.0588C114.118 20.8367 114.48 19.6421 115.159 18.6261C115.839 17.6101 116.804 16.8185 117.933 16.3514C119.062 15.8842 120.305 15.7626 121.503 16.0019C122.702 16.2412 123.802 16.8306 124.666 17.6955C125.529 18.5606 126.116 19.6622 126.353 20.8611C126.59 22.06 126.466 23.3022 125.997 24.4306C125.528 25.5591 124.734 26.5228 123.717 27.2001C122.7 27.8774 121.504 28.2376 120.282 28.2353C119.47 28.2432 118.663 28.0887 117.911 27.7809C117.159 27.4732 116.476 27.0183 115.901 26.4431C115.327 25.8678 114.874 25.1836 114.567 24.4308C114.261 23.678 114.108 22.8715 114.118 22.0588ZM122.965 22.0588C122.951 21.5311 122.781 21.0191 122.478 20.5871C122.174 20.1552 121.75 19.8223 121.258 19.6305C120.766 19.4386 120.229 19.3961 119.713 19.5085C119.197 19.6207 118.726 19.8828 118.358 20.2618C117.99 20.6407 117.743 21.1198 117.646 21.6388C117.55 22.1579 117.608 22.6939 117.815 23.1796C118.022 23.6655 118.367 24.0795 118.808 24.3699C119.249 24.6601 119.766 24.8139 120.294 24.8118C120.653 24.8188 121.01 24.7516 121.342 24.6145C121.674 24.4774 121.974 24.2733 122.224 24.0149C122.473 23.7566 122.667 23.4494 122.792 23.1129C122.918 22.7763 122.972 22.4175 122.953 22.0588H122.965Z" fill="#7C7C7C"/>
<path d="M128.082 13.1176C128.082 12.7035 128.205 12.2986 128.435 11.9542C128.665 11.6098 128.992 11.3414 129.375 11.1829C129.757 11.0244 130.178 10.9829 130.585 11.0637C130.991 11.1445 131.364 11.344 131.657 11.6369C131.95 11.9297 132.149 12.3029 132.23 12.709C132.311 13.1153 132.269 13.5363 132.111 13.919C131.952 14.3016 131.684 14.6287 131.34 14.8588C130.995 15.0889 130.59 15.2117 130.176 15.2117C129.623 15.2056 129.094 14.983 128.702 14.5916C128.311 14.2002 128.088 13.6711 128.082 13.1176ZM128.423 16.2353H131.953V27.8823H128.423V16.2353Z" fill="#7C7C7C"/>
<path d="M147.059 22.0588C147.098 22.8334 146.984 23.6082 146.723 24.3386C146.462 25.0689 146.059 25.7405 145.538 26.3145C145.016 26.8886 144.386 27.3538 143.684 27.6834C142.982 28.0131 142.222 28.2006 141.447 28.2353C140.789 28.2791 140.131 28.1738 139.519 27.9273C138.908 27.6807 138.361 27.2994 137.918 26.8118V32.5647H134.388V16.2353H137.918V17.3294C138.361 16.8432 138.909 16.4636 139.521 16.2192C140.132 15.9746 140.79 15.8715 141.447 15.9176C142.219 15.9523 142.976 16.1388 143.676 16.4662C144.375 16.7936 145.004 17.2558 145.525 17.826C146.046 18.3962 146.45 19.0635 146.713 19.7899C146.976 20.5161 147.094 21.2871 147.059 22.0588ZM143.529 22.0588C143.515 21.5123 143.341 20.9822 143.027 20.5348C142.713 20.0874 142.274 19.7425 141.765 19.5435C141.256 19.3445 140.699 19.3002 140.165 19.4161C139.631 19.532 139.143 19.8031 138.762 20.1952C138.381 20.5873 138.125 21.0831 138.024 21.6205C137.924 22.1578 137.985 22.7127 138.199 23.2158C138.413 23.7187 138.77 24.1474 139.227 24.4481C139.683 24.7488 140.218 24.908 140.765 24.9059C141.139 24.9218 141.513 24.8584 141.861 24.7198C142.209 24.5812 142.524 24.3706 142.785 24.1018C143.046 23.8329 143.247 23.5119 143.375 23.1599C143.504 22.8078 143.556 22.4326 143.529 22.0588Z" fill="#7C7C7C"/>
<path d="M157.8 24.3882C157.8 27.0706 155.447 28.2118 152.953 28.2118C151.935 28.3033 150.914 28.0877 150.021 27.5927C149.127 27.0978 148.403 26.3462 147.941 25.4353L150.976 23.7177C151.096 24.1374 151.357 24.5032 151.715 24.7538C152.072 25.0044 152.505 25.1245 152.941 25.0941C153.776 25.0941 154.2 24.8353 154.2 24.3647C154.2 23.0824 148.47 23.7647 148.47 19.7294C148.47 17.1882 150.612 15.9177 153.035 15.9177C153.956 15.8764 154.872 16.0854 155.683 16.5225C156.495 16.9595 157.174 17.6084 157.647 18.4L154.612 20C154.477 19.6965 154.258 19.4384 153.981 19.2567C153.703 19.0751 153.379 18.9778 153.047 18.9765C152.435 18.9765 152.07 19.2118 152.07 19.6235C152.07 20.9647 157.8 20.0824 157.8 24.3882Z" fill="#7C7C7C"/>
<path d="M170.588 16.2353V27.8824H167.059V26.7882C166.658 27.2726 166.148 27.6558 165.573 27.9072C164.996 28.1586 164.369 28.2709 163.741 28.2353C161.388 28.2353 159.376 26.5529 159.376 23.4118V16.2353H162.906V22.8824C162.878 23.1602 162.911 23.4408 163.002 23.7048C163.094 23.9687 163.241 24.2096 163.434 24.4111C163.628 24.6123 163.864 24.7693 164.124 24.8711C164.384 24.9727 164.662 25.0167 164.941 25C166.212 25 167.106 24.2471 167.106 22.6471V16.2353H170.588Z" fill="#7C7C7C"/>
<path d="M190.588 20.7294V27.8824H187.059V21.0353C187.059 19.8589 186.506 19.1294 185.388 19.1294C184.271 19.1294 183.565 19.9412 183.565 21.3177V27.8824H180.035V21.0353C180.035 19.8589 179.482 19.1294 178.365 19.1294C177.247 19.1294 176.541 19.9412 176.541 21.3177V27.8824H173.012V16.2353H176.541V17.3059C176.907 16.833 177.383 16.4584 177.931 16.216C178.476 15.9737 179.075 15.8711 179.671 15.9177C180.267 15.8865 180.862 16.0112 181.396 16.2793C181.931 16.5474 182.386 16.9499 182.718 17.4471C183.106 16.9276 183.619 16.5149 184.209 16.2474C184.799 15.9799 185.448 15.8665 186.094 15.9177C188.847 15.9177 190.588 17.8236 190.588 20.7294Z" fill="#7C7C7C"/>
<path d="M193.553 16.1647C194.982 16.1647 196.141 15.0059 196.141 13.5765C196.141 12.147 194.982 10.9882 193.553 10.9882C192.123 10.9882 190.964 12.147 190.964 13.5765C190.964 15.0059 192.123 16.1647 193.553 16.1647Z" fill="#7C7C7C"/>
</svg>
