<svg width="239" height="40" viewBox="0 0 239 40" fill="none" xmlns="http://www.w3.org/2000/svg">
<path d="M56.3588 17.828C55.8535 18.3364 55.4665 18.95 55.2255 19.6249C54.9844 20.3 54.8952 21.0199 54.9641 21.7333L54.9401 21.7093C55.011 22.5492 54.8977 23.3943 54.6082 24.1859C54.3188 24.9773 53.8601 25.6961 53.2643 26.2921C52.6683 26.888 51.9494 27.3468 51.1578 27.6361C50.3664 27.9256 49.5212 28.0389 48.6814 27.968L48.7055 27.992C47.7009 27.8985 46.692 28.1171 45.8161 28.618C44.9404 29.1189 44.2404 29.8777 43.8117 30.7911C43.383 31.7044 43.2464 32.7276 43.4205 33.7215C43.5948 34.7152 44.0712 35.6311 44.7849 36.3441C45.4986 37.0572 46.4149 37.5328 47.4088 37.706C48.4028 37.8793 49.4258 37.7417 50.3388 37.3123C51.2517 36.8827 52.0098 36.1821 52.51 35.3059C53.0101 34.4296 53.2278 33.4205 53.1334 32.416L53.1588 32.44C53.0878 31.6003 53.201 30.7551 53.4905 29.9635C53.78 29.172 54.2388 28.4532 54.8346 27.8572C55.4306 27.2613 56.1495 26.8025 56.9409 26.5132C57.7325 26.2237 58.5776 26.1104 59.4174 26.1813L59.3921 26.1573C60.2127 26.2311 61.0387 26.0965 61.7935 25.7661C62.5481 25.4357 63.2073 24.9201 63.7097 24.2672C64.2121 23.6143 64.5417 22.8449 64.6676 22.0308C64.7936 21.2165 64.712 20.3837 64.4304 19.6093C64.1488 18.8351 63.6763 18.1444 63.0567 17.6013C62.4371 17.0583 61.6904 16.6804 60.8859 16.5028C60.0813 16.3252 59.2449 16.3535 58.4543 16.5851C57.6636 16.8168 56.9443 17.2443 56.3628 17.828H56.3588Z" fill="#7C7C7C"/>
<path d="M46.5227 24.848L46.4973 24.824C47.2111 24.8959 47.9319 24.8083 48.6077 24.5675C49.2835 24.3267 49.8973 23.9388 50.4048 23.4317C50.9121 22.9247 51.3007 22.3111 51.5419 21.6355C51.7832 20.9599 51.8713 20.2392 51.8 19.5253L51.8253 19.5493C51.7544 18.7095 51.8677 17.8644 52.1571 17.0728C52.4465 16.2813 52.9053 15.5625 53.5012 14.9665C54.0972 14.3707 54.816 13.9119 55.6075 13.6225C56.3991 13.333 57.2441 13.2198 58.084 13.2907L58.0587 13.2667C59.0633 13.3611 60.0725 13.1432 60.9488 12.6428C61.8252 12.1425 62.5257 11.384 62.9551 10.4708C63.3844 9.55767 63.5216 8.53429 63.348 7.54028C63.1744 6.54627 62.6984 5.63003 61.9848 4.91651C61.2713 4.203 60.3551 3.72695 59.3611 3.55332C58.3671 3.37968 57.3437 3.5169 56.4305 3.94626C55.5173 4.3756 54.7589 5.0762 54.2585 5.95248C53.7581 6.82875 53.5403 7.83804 53.6347 8.84268L53.6107 8.81735C53.6817 9.6572 53.5687 10.5025 53.2793 11.2941C52.99 12.0857 52.5312 12.8046 51.9353 13.4007C51.3393 13.9965 50.6204 14.4553 49.8288 14.7447C49.0371 15.034 48.1919 15.1471 47.352 15.076L47.376 15.1013C46.6623 15.0295 45.9413 15.1171 45.2656 15.3579C44.5899 15.5985 43.976 15.9865 43.4685 16.4936C42.9611 17.0007 42.5727 17.6143 42.3313 18.2899C42.0901 18.9655 42.002 19.6861 42.0733 20.4L42.0493 20.376C42.12 21.2157 42.0065 22.0608 41.7171 22.8523C41.4275 23.6436 40.9688 24.3624 40.3729 24.9583C39.777 25.5541 39.0583 26.0128 38.2669 26.3024C37.4755 26.5919 36.6304 26.7053 35.7907 26.6347L35.8147 26.6587C34.81 26.5643 33.8007 26.7821 32.9245 27.2825C32.0482 27.7829 31.3476 28.5413 30.9183 29.4545C30.4889 30.3677 30.3517 31.3911 30.5253 32.3851C30.6989 33.3791 31.175 34.2953 31.8885 35.0088C32.602 35.7224 33.5183 36.1984 34.5123 36.372C35.5063 36.5456 36.5297 36.4084 37.4428 35.9791C38.356 35.5497 39.1145 34.8492 39.6148 33.9729C40.1152 33.0965 40.3331 32.0873 40.2387 31.0827L40.264 31.1067C40.1931 30.2668 40.3064 29.4217 40.5959 28.6301C40.8852 27.8387 41.344 27.1199 41.9399 26.5239C42.5359 25.928 43.2547 25.4692 44.0461 25.1799C44.8377 24.8904 45.6828 24.7771 46.5227 24.848Z" fill="#7C7C7C"/>
<path d="M37.5869 22.172C38.0923 21.6638 38.4792 21.0502 38.72 20.3751C38.9609 19.7 39.0497 18.98 38.9803 18.2667L39.0056 18.2907C38.9346 17.4507 39.0479 16.6052 39.3375 15.8135C39.6271 15.0218 40.0861 14.3028 40.6824 13.7068C41.2787 13.1108 41.9977 12.6522 42.7896 12.3629C43.5814 12.0736 44.4269 11.9607 45.2669 12.032L45.2416 12.008C46.2459 12.1021 47.2548 11.8841 48.1307 11.3838C49.0065 10.8835 49.7066 10.1252 50.1358 9.21233C50.5649 8.29945 50.702 7.27645 50.5284 6.28281C50.3548 5.28917 49.8788 4.37327 49.1656 3.66002C48.4524 2.94677 47.5364 2.47087 46.5428 2.29725C45.5492 2.12361 44.5261 2.2607 43.6133 2.68979C42.7004 3.11889 41.9421 3.81911 41.4419 4.69498C40.9415 5.57085 40.7234 6.57973 40.8176 7.58402L40.7936 7.56002C40.8645 8.39982 40.7512 9.24498 40.4617 10.0365C40.1723 10.828 39.7136 11.5468 39.1177 12.1428C38.5217 12.7387 37.8029 13.1974 37.0114 13.4868C36.2199 13.7763 35.3747 13.8896 34.5349 13.8187L34.5589 13.8427C33.7383 13.7691 32.9125 13.9039 32.1578 14.2344C31.4032 14.565 30.7442 15.0807 30.2419 15.7338C29.7396 16.3867 29.4103 17.156 29.2845 17.9702C29.1586 18.7844 29.2404 19.6172 29.5221 20.3914C29.8038 21.1656 30.2763 21.8562 30.896 22.3991C31.5156 22.9422 32.2623 23.3199 33.0668 23.4975C33.8713 23.675 34.7076 23.6466 35.4982 23.415C36.2888 23.1832 37.0082 22.7558 37.5896 22.172H37.5869Z" fill="#7C7C7C"/>
<path d="M78.8894 8.87335H82.8494V28.144H78.8894V8.87335Z" fill="#7C7C7C"/>
<path d="M85.0922 21.5453C85.0868 20.1605 85.4924 18.8051 86.2577 17.6509C87.023 16.4968 88.1137 15.5957 89.3916 15.062C90.6694 14.5281 92.0769 14.3856 93.4358 14.6524C94.7948 14.9192 96.044 15.5832 97.0252 16.5605C98.0064 17.5377 98.6754 18.7843 98.9477 20.1421C99.22 21.5 99.083 22.9081 98.5544 24.1881C98.0257 25.468 97.129 26.5624 95.978 27.3323C94.8268 28.1023 93.4732 28.5133 92.0882 28.5133C91.169 28.5239 90.2569 28.3509 89.4052 28.0048C88.5534 27.6587 87.7793 27.1463 87.128 26.4976C86.4765 25.8488 85.961 25.0767 85.6116 24.2264C85.262 23.3761 85.0854 22.4647 85.0922 21.5453ZM95.1242 21.5453C95.1077 20.9484 94.9156 20.3696 94.572 19.8812C94.2282 19.3929 93.7482 19.0167 93.192 18.7997C92.6356 18.5827 92.0277 18.5344 91.4441 18.6611C90.8605 18.7877 90.3272 19.0835 89.9108 19.5116C89.4945 19.9396 89.2134 20.4809 89.1032 21.0679C88.9928 21.6547 89.0577 22.2611 89.2901 22.8112C89.5225 23.3613 89.9118 23.8307 90.4094 24.1607C90.9072 24.4907 91.4912 24.6667 92.0882 24.6667C92.4972 24.6776 92.904 24.6036 93.283 24.4495C93.662 24.2953 94.0049 24.0644 94.2901 23.7712C94.5753 23.4779 94.7968 23.1287 94.9402 22.7456C95.0838 22.3625 95.1465 21.9539 95.1242 21.5453Z" fill="#7C7C7C"/>
<path d="M114.867 14.9453V27.4786C114.867 31.9133 111.408 33.788 107.897 33.788C106.661 33.8805 105.424 33.6308 104.32 33.0664C103.217 32.5018 102.29 31.6444 101.641 30.588L105.02 28.6346C105.293 29.1853 105.727 29.6396 106.265 29.9368C106.802 30.2338 107.418 30.3597 108.029 30.2973C108.42 30.3514 108.818 30.317 109.194 30.1966C109.569 30.0762 109.913 29.8729 110.199 29.6018C110.486 29.3306 110.707 28.9986 110.848 28.6301C110.989 28.2617 111.045 27.8664 111.012 27.4733V26.2666C110.548 26.834 109.958 27.2848 109.289 27.5828C108.619 27.8808 107.889 28.0177 107.157 27.9826C105.416 27.9277 103.764 27.1973 102.551 25.9458C101.339 24.6945 100.661 23.0204 100.661 21.278C100.661 19.5356 101.339 17.8614 102.551 16.6101C103.764 15.3586 105.416 14.6282 107.157 14.5733C107.889 14.5382 108.619 14.6752 109.289 14.9732C109.958 15.2712 110.548 15.722 111.012 16.2893V14.9426L114.867 14.9453ZM111.013 21.28C111.04 20.6418 110.875 20.0102 110.54 19.4666C110.204 18.9229 109.714 18.4921 109.132 18.2296C108.549 17.9669 107.902 17.8846 107.272 17.9932C106.643 18.1017 106.06 18.3961 105.6 18.8386C105.139 19.281 104.821 19.8512 104.687 20.4757C104.553 21.1002 104.609 21.7506 104.848 22.343C105.087 22.9354 105.498 23.4429 106.027 23.8C106.557 24.157 107.181 24.3474 107.82 24.3466C108.236 24.3757 108.654 24.3173 109.046 24.1752C109.438 24.033 109.796 23.8102 110.097 23.5214C110.398 23.2325 110.635 22.8838 110.792 22.4977C110.95 22.1117 111.026 21.6969 111.013 21.28Z" fill="#7C7C7C"/>
<path d="M117.11 21.5453C117.104 20.1605 117.51 18.8051 118.275 17.6509C119.04 16.4968 120.131 15.5957 121.409 15.062C122.687 14.5281 124.094 14.3856 125.453 14.6524C126.812 14.9192 128.061 15.5832 129.042 16.5605C130.024 17.5377 130.693 18.7843 130.965 20.1421C131.237 21.5 131.1 22.9081 130.572 24.1881C130.043 25.468 129.146 26.5624 127.995 27.3323C126.844 28.1023 125.49 28.5133 124.106 28.5133C123.186 28.5239 122.274 28.3509 121.422 28.0048C120.571 27.6587 119.797 27.1463 119.145 26.4976C118.494 25.8488 117.978 25.0767 117.629 24.2264C117.279 23.3761 117.103 22.4647 117.11 21.5453ZM127.142 21.5453C127.125 20.9484 126.933 20.3696 126.589 19.8812C126.246 19.3929 125.766 19.0167 125.209 18.7997C124.653 18.5827 124.045 18.5344 123.461 18.6611C122.878 18.7877 122.344 19.0835 121.928 19.5116C121.512 19.9396 121.231 20.4809 121.12 21.0679C121.01 21.6547 121.075 22.2611 121.307 22.8112C121.54 23.3613 121.929 23.8307 122.427 24.1607C122.924 24.4907 123.508 24.6667 124.106 24.6667C124.514 24.6776 124.921 24.6036 125.3 24.4495C125.679 24.2953 126.022 24.0644 126.307 23.7712C126.593 23.4779 126.814 23.1287 126.958 22.7456C127.101 22.3625 127.164 21.9539 127.142 21.5453Z" fill="#7C7C7C"/>
<path d="M132.948 11.408C132.948 10.9381 133.088 10.4787 133.349 10.088C133.61 9.69723 133.981 9.39268 134.415 9.21285C134.849 9.03301 135.327 8.98596 135.788 9.07764C136.249 9.16932 136.672 9.39561 137.004 9.72791C137.337 10.0602 137.563 10.4835 137.655 10.9445C137.746 11.4053 137.699 11.8831 137.519 12.3172C137.34 12.7514 137.035 13.1225 136.644 13.3836C136.254 13.6447 135.794 13.784 135.324 13.784C134.696 13.7777 134.095 13.5255 133.651 13.0812C133.207 12.6369 132.955 12.0362 132.948 11.408ZM133.348 14.9453H137.31V28.1453H133.343L133.348 14.9453Z" fill="#7C7C7C"/>
<path d="M154.408 21.5453C154.454 22.4177 154.327 23.2905 154.034 24.1136C153.741 24.9367 153.289 25.6937 152.702 26.3413C152.116 26.9888 151.407 27.5141 150.617 27.8869C149.827 28.2596 148.971 28.4725 148.099 28.5133C147.365 28.5533 146.631 28.4296 145.951 28.1511C145.271 27.8724 144.662 27.446 144.167 26.9027V33.424H140.207V14.9453H144.167V16.1853C144.662 15.6424 145.272 15.2163 145.952 14.938C146.632 14.6596 147.365 14.536 148.099 14.576C148.972 14.6167 149.828 14.8295 150.618 15.2023C151.408 15.5751 152.117 16.1004 152.703 16.7481C153.29 17.3959 153.742 18.1532 154.035 18.9765C154.327 19.7997 154.454 20.6728 154.408 21.5453ZM150.448 21.5453C150.433 20.9276 150.235 20.3281 149.881 19.8219C149.526 19.3157 149.03 18.9253 148.455 18.6997C147.88 18.474 147.251 18.4229 146.647 18.5531C146.043 18.6831 145.49 18.9884 145.059 19.4308C144.627 19.8733 144.336 20.4331 144.221 21.0404C144.106 21.6476 144.173 22.2751 144.413 22.8445C144.653 23.414 145.056 23.8999 145.571 24.2416C146.086 24.5832 146.69 24.7655 147.308 24.7653C147.732 24.7843 148.156 24.7132 148.551 24.5569C148.946 24.4008 149.303 24.1628 149.599 23.8588C149.896 23.5547 150.125 23.1915 150.271 22.7928C150.417 22.3941 150.478 21.9689 150.448 21.5453Z" fill="#7C7C7C"/>
<path d="M166.628 24.184C166.628 27.22 163.99 28.5133 161.139 28.5133C159.987 28.6176 158.83 28.3741 157.819 27.814C156.807 27.254 155.986 26.4033 155.463 25.372L158.894 23.4187C159.032 23.8953 159.33 24.3101 159.738 24.5935C160.146 24.8769 160.639 25.012 161.134 24.976C162.083 24.976 162.559 24.6853 162.559 24.1587C162.559 22.7053 156.064 23.472 156.064 18.9053C156.064 16.0267 158.494 14.576 161.239 14.576C162.271 14.5433 163.292 14.7881 164.198 15.2848C165.103 15.7816 165.859 16.512 166.386 17.4L163.007 19.2213C162.859 18.8756 162.612 18.5811 162.298 18.3745C161.983 18.168 161.615 18.0587 161.239 18.06C160.552 18.06 160.13 18.3267 160.13 18.7987C160.135 20.304 166.628 19.3 166.628 24.184Z" fill="#7C7C7C"/>
<path d="M181.093 14.9453V28.1453H177.133V26.904C176.676 27.4517 176.096 27.8833 175.44 28.1633C174.784 28.4433 174.072 28.5637 173.36 28.5146C170.693 28.5146 168.427 26.6146 168.427 23.048V14.9453H172.387V22.468C172.353 22.7824 172.389 23.1002 172.492 23.3993C172.593 23.6985 172.76 23.9718 172.979 24.2002C173.197 24.4286 173.463 24.6066 173.757 24.722C174.051 24.8373 174.367 24.8872 174.683 24.868C176.135 24.868 177.137 24.024 177.137 22.1493V14.9493L181.093 14.9453Z" fill="#7C7C7C"/>
<path d="M203.8 20.04V28.144H199.84V20.3826C199.84 19.0626 199.207 18.2186 197.94 18.2186C196.62 18.2186 195.88 19.1426 195.88 20.7V28.144H191.921V20.3826C191.921 19.0626 191.288 18.2186 190.02 18.2186C188.7 18.2186 187.961 19.1426 187.961 20.7V28.144H184.001V14.944H187.961V16.1573C188.372 15.619 188.911 15.1921 189.528 14.9157C190.147 14.6392 190.824 14.522 191.499 14.5746C192.176 14.5414 192.851 14.6845 193.457 14.9897C194.063 15.2948 194.579 15.7518 194.956 16.316C195.395 15.7257 195.976 15.2564 196.645 14.9518C197.315 14.6473 198.051 14.5176 198.784 14.5746C201.815 14.576 203.8 16.74 203.8 20.04Z" fill="#7C7C7C"/>
<path d="M207.149 14.864C208.772 14.864 210.088 13.5483 210.088 11.9254C210.088 10.3024 208.772 8.98669 207.149 8.98669C205.527 8.98669 204.211 10.3024 204.211 11.9254C204.211 13.5483 205.527 14.864 207.149 14.864Z" fill="#7C7C7C"/>
</svg>
